HIERARCHY
ROOT Bip001_Pelvis
{
  OFFSET -0.518542 91.1688 -12.0061
  CHANNELS 6 Xposition Yposition Zposition Zrotation Xrotation Yrotation
  JOINT Bip001_Spine
  {
    OFFSET 1.44608e-005 10.4157 -0.0118244
    CHANNELS 3 Zrotation Xrotation Yrotation
    JOINT Bip001_L_Thigh
    {
      OFFSET 11.2582 -10.4157 0.0118432
      CHANNELS 3 Zrotation Xrotation Yrotation
      JOINT Bip001_L_Calf
      {
        OFFSET -0.720717 -44.8687 0.366937
        CHANNELS 3 Zrotation Xrotation Yrotation
        JOINT Bip001_L_Foot
        {
          OFFSET -0.664439 -41.3745 -3.62995
          CHANNELS 3 Zrotation Xrotation Yrotation
          JOINT Bip001_L_Toe0
          {
            OFFSET 0.0541048 -10.4146 13.4033
            CHANNELS 3 Zrotation Xrotation Yrotation
            End Site
            {
              OFFSET -1.04503e-005 0 7.70137
            }
          }
        }
      }
    }
    JOINT Bip001_R_Thigh
    {
      OFFSET -11.2582 -10.4156 0.0118122
      CHANNELS 3 Zrotation Xrotation Yrotation
      JOINT Bip001_R_Calf
      {
        OFFSET 0.72059 -44.8687 0.36676
        CHANNELS 3 Zrotation Xrotation Yrotation
        JOINT Bip001_R_Foot
        {
          OFFSET 0.664321 -41.3745 -3.62979
          CHANNELS 3 Zrotation Xrotation Yrotation
          JOINT Bip001_R_Toe0
          {
            OFFSET -0.05417 -10.4146 13.4033
            CHANNELS 3 Zrotation Xrotation Yrotation
            End Site
            {
              OFFSET -1.04873e-005 0 7.70137
            }
          }
        }
      }
    }
    JOINT Bip001_Spine1
    {
      OFFSET 1.90638e-005 14.8539 1.10727
      CHANNELS 3 Zrotation Xrotation Yrotation
      JOINT Bip001_Spine2
      {
        OFFSET 2.28934e-005 14.7848 -1.7233
        CHANNELS 3 Zrotation Xrotation Yrotation
        JOINT Bip001_Neck
        {
          OFFSET 2.24514e-005 15.6905 -0.498826
          CHANNELS 3 Zrotation Xrotation Yrotation
          JOINT Bip001_L_Clavicle
          {
            OFFSET 6.17691 -0.000591152 0.00852867
            CHANNELS 3 Zrotation Xrotation Yrotation
            JOINT Bip001_L_UpperArm
            {
              OFFSET 11.773 -0.0611878 0.00197697
              CHANNELS 3 Zrotation Xrotation Yrotation
              JOINT Bip001_L_Forearm
              {
                OFFSET 26.4515 0.0817569 -2.19579
                CHANNELS 3 Zrotation Xrotation Yrotation
                JOINT Bip001_L_Hand
                {
                  OFFSET 32.8679 0.156744 1.67111
                  CHANNELS 3 Zrotation Xrotation Yrotation
                  JOINT Bip001_L_Finger0
                  {
                    OFFSET 6.16272 -2.25228 6.01663
                    CHANNELS 3 Zrotation Xrotation Yrotation
                    End Site
                    {
                      OFFSET 4.30501 -1.46664 0.618137
                    }
                  }
                  JOINT Bip001_L_Finger1
                  {
                    OFFSET 11.2958 -0.718383 -0.201959
                    CHANNELS 3 Zrotation Xrotation Yrotation
                    End Site
                    {
                      OFFSET 6.31956 -0.405168 -0.0802288
                    }
                  }
                }
              }
            }
          }
          JOINT Bip001_R_Clavicle
          {
            OFFSET -6.17691 -0.000574027 0.00851165
            CHANNELS 3 Zrotation Xrotation Yrotation
            JOINT Bip001_R_UpperArm
            {
              OFFSET -11.773 -0.0611516 0.00194365
              CHANNELS 3 Zrotation Xrotation Yrotation
              JOINT Bip001_R_Forearm
              {
                OFFSET -26.4514 0.0822336 -2.19736
                CHANNELS 3 Zrotation Xrotation Yrotation
                JOINT Bip001_R_Hand
                {
                  OFFSET -32.8678 0.156816 1.67144
                  CHANNELS 3 Zrotation Xrotation Yrotation
                  JOINT Bip001_R_Finger0
                  {
                    OFFSET -6.1627 -2.25225 6.01669
                    CHANNELS 3 Zrotation Xrotation Yrotation
                    End Site
                    {
                      OFFSET -4.305 -1.46662 0.618133
                    }
                  }
                  JOINT Bip001_R_Finger1
                  {
                    OFFSET -11.2958 -0.718346 -0.201993
                    CHANNELS 3 Zrotation Xrotation Yrotation
                    End Site
                    {
                      OFFSET -6.31953 -0.405147 -0.0802474
                    }
                  }
                }
              }
            }
          }
          JOINT Bip001_Head
          {
            OFFSET 1.11782e-005 11.4912 2.09908
            CHANNELS 3 Zrotation Xrotation Yrotation
            End Site
            {
              OFFSET 2.95144e-005 21.2823 -2.83069e-005
            }
          }
        }
      }
    }
  }
}
MOTION
Frames:	7
Frame Time:	0.0333333
0.482788 90.3795 -10.994 4.0211 -2.70798 -2.2691 -1.1903 2.88643 1.61412 -7.13864 -12.6801 0.269223 0.059645 24.0505 -0.43407 1.80902 -11.6163 16.0327 -2.11504e-007 2.82823e-008 -1.15567e-009 -6.36728 -28.8835 -0.617846 -0.127796 33.8683 0.573469 0.222129 -8.28446 -16.5445 -1.31775e-007 -2.93356e-007 1.68699e-006 -2.37575 5.74637 3.27622 -2.3746 5.74642 3.27499 -10.3498 -1.00245 7.85501 -15.3413 4.63032 -7.93052 -0.112646 65.8949 -18.744 -5.54326 4.84584 -79.1602 69.7633 9.03272 -42.6543 -3.18055e-015 0 -3.18055e-015 -3.18055e-015 0 -3.18055e-015 42.1876 -3.90432 -8.77586 -12.0541 62.1954 54.3256 2.61155 0.716197 27.2963 -22.3867 -31.8372 0.559624 6.36111e-015 3.18055e-015 -3.18055e-015 9.54166e-015 3.18056e-015 -3.18055e-015 -4.95702 -1.60715 6.03494 
0.501472 90.3667 -10.9852 4.04258 -2.70801 -2.2647 -1.18988 2.88642 1.61427 -7.17562 -12.6917 0.270903 0.0602616 24.0569 -0.435474 1.81663 -11.7292 15.9999 -2.11504e-007 2.82823e-008 -1.15567e-009 -6.38907 -28.9167 -0.57691 -0.128591 33.9342 0.573912 0.0398011 -8.28048 -16.6072 -1.31775e-007 -2.93356e-007 1.68699e-006 -2.39891 5.74654 3.27497 -2.39794 5.74658 3.27416 -10.3181 -1.00262 7.85046 -15.3507 4.62827 -7.92001 -0.179953 65.9513 -18.6752 -5.54308 4.84557 -79.1636 69.6521 8.94842 -42.7439 -3.18055e-015 3.18055e-015 3.18055e-015 -4.77083e-015 -3.18056e-015 3.18055e-015 42.221 -3.90193 -8.77271 -12.0742 62.1968 54.3048 2.61919 0.722112 27.3128 -22.4352 -31.7912 0.548963 -5.29669e-031 9.54166e-015 3.18055e-015 3.18055e-015 9.54167e-015 9.54166e-015 -4.95217 -1.62095 6.01536 
0.519756 90.3285 -10.9603 4.05074 -2.70975 -2.26799 -1.18747 2.88792 1.612 -7.19639 -12.7442 0.275361 0.0617659 24.1957 -0.436795 1.81315 -11.8229 16.0617 -2.11504e-007 2.82823e-008 -1.15567e-009 -6.43041 -28.9248 -0.654053 -0.128985 33.9669 0.574133 -0.132238 -7.86154 -16.7222 -1.31775e-007 -2.93356e-007 1.68699e-006 -2.40235 5.74834 3.27225 -2.40183 5.74836 3.27187 -10.3404 -1.00009 7.83544 -15.3819 4.62517 -7.90617 -0.109147 65.974 -18.6846 -5.54026 4.84862 -79.1937 69.7155 8.92482 -42.6843 4.77083e-015 2.38542e-015 3.18055e-015 6.36111e-015 -7.95139e-016 6.36111e-015 42.2546 -3.89859 -8.76583 -12.1664 62.1909 54.2197 2.64471 0.736995 27.604 -22.453 -31.7553 0.534604 6.36111e-015 0 3.18055e-015 6.36111e-015 3.18056e-015 3.18055e-015 -4.94437 -1.61129 5.9931 
0.53182 90.32 -10.954 4.04589 -2.71726 -2.27053 -1.18349 2.89205 1.6068 -7.19592 -12.7593 0.28269 0.0625128 24.2171 -0.438252 1.82454 -11.7968 15.9991 -2.11504e-007 2.82823e-008 -1.15567e-009 -6.38302 -28.9305 -0.529923 -0.129258 33.9895 0.574285 -0.21408 -7.85071 -16.8808 -1.31775e-007 -2.93356e-007 1.68699e-006 -2.39786 5.75313 3.26941 -2.39775 5.75317 3.26914 -10.3062 -0.994377 7.81693 -15.4013 4.61831 -7.89425 -0.0364963 65.9966 -18.7028 -5.53261 4.85718 -79.2775 69.5262 8.90251 -42.6682 3.18055e-015 -7.95139e-016 -0 4.77083e-015 -3.18056e-015 -3.18055e-015 42.2918 -3.89346 -8.75163 -12.2643 62.181 54.2061 2.64829 0.739751 27.6953 -22.4087 -31.6683 0.572971 -3.18055e-015 -3.18055e-015 3.18055e-015 -0 -3.18056e-015 -0 -4.93407 -1.55456 5.98004 
0.530655 90.3289 -10.9364 4.01556 -2.75377 -2.20454 -1.17343 2.90355 1.59371 -7.15899 -12.7225 0.316923 0.0623886 24.2023 -0.438201 1.83007 -11.6395 15.713 -2.11504e-007 2.82823e-008 -1.15567e-009 -6.35884 -28.8544 -0.511408 -0.129232 33.9873 0.57427 -0.261229 -7.92867 -17.0184 -1.31775e-007 -2.93356e-007 1.68699e-006 -2.37942 5.7745 3.24571 -2.37942 5.77455 3.24549 -10.3144 -0.985034 7.80145 -15.4249 4.61699 -7.88358 0.0381757 66.0025 -18.7386 -5.53241 4.85657 -79.2705 69.5451 8.90069 -42.6136 -4.77083e-015 -9.54166e-015 -3.18055e-015 -6.36111e-015 -9.54167e-015 -9.54166e-015 42.3159 -3.88952 -8.73867 -12.3169 62.1799 54.2689 2.64617 0.738219 27.6516 -22.4218 -31.7059 0.552156 -3.18055e-015 3.18055e-015 3.18055e-015 0 6.36111e-015 -0 -4.98019 -1.54384 5.97225 
0.500382 90.3384 -10.8932 3.93196 -2.85116 -2.0534 -1.15167 2.92755 1.56714 -7.03456 -12.6741 0.40465 0.0631499 24.2931 -0.438514 1.69207 -11.5758 15.7172 -2.11504e-007 2.82823e-008 -1.15567e-009 -6.31681 -28.6449 -0.63361 -0.128507 33.9273 0.573865 -0.398096 -8.02916 -17.125 -1.31775e-007 -2.93356e-007 1.68699e-006 -2.33481 5.82366 3.19031 -2.33477 5.82366 3.19008 -10.317 -0.968175 7.77627 -15.4263 4.60317 -7.86587 0.0706396 66.0147 -18.8008 -5.53466 4.85184 -79.2213 69.6909 8.92749 -42.5706 -1.59028e-015 1.59028e-015 -3.18055e-015 -3.18055e-015 2.38542e-015 -3.18055e-015 42.3313 -3.88894 -8.71456 -12.3457 62.182 54.3658 2.63726 0.729966 27.5083 -22.4124 -31.6658 0.651845 -9.54166e-015 0 6.36111e-015 -3.18055e-015 0 6.36111e-015 -4.99072 -1.51516 5.95556 
0.525848 90.3262 -10.9209 3.90753 -2.84813 -2.13436 -1.14937 2.92787 1.58209 -7.02212 -12.7287 0.39179 0.063717 24.3605 -0.438748 1.58704 -11.5135 15.9328 -2.11504e-007 2.82823e-008 -1.15567e-009 -6.22986 -28.6894 -0.437023 -0.128844 33.9552 0.574054 -0.442563 -8.14417 -17.1863 -1.31775e-007 -2.93356e-007 1.68699e-006 -2.33048 5.82408 3.22168 -2.33048 5.8241 3.22145 -10.2968 -0.92656 7.7539 -15.4596 4.56142 -7.86082 0.0390331 66.0304 -18.7978 -5.53277 4.85071 -79.2059 69.6706 8.84971 -42.5967 -2.64834e-031 -2.38542e-015 -6.36111e-015 1.59028e-015 -1.59028e-015 -6.36111e-015 42.316 -3.88973 -8.6703 -12.3649 62.1496 54.3821 2.63228 0.729007 27.4602 -22.406 -31.549 0.733389 1.76556e-031 3.18055e-015 -3.18055e-015 -6.36111e-015 3.18056e-015 -0 -4.9736 -1.49842 5.93454 
